<mxfile host="Electron" modified="2023-12-16T21:15:58.646Z" agent="Mozilla/5.0 (Macintosh; Intel Mac OS X 10_15_7) AppleWebKit/537.36 (KHTML, like Gecko) draw.io/22.1.2 Chrome/114.0.5735.289 Electron/25.9.4 Safari/537.36" etag="r4TcY9D0N56Ak3PPfUKh" version="22.1.2" type="device">
  <diagram name="Page-1" id="CfDfnTgOocIoaUoPJ3iu">
    <mxGraphModel dx="970" dy="743" grid="1" gridSize="10" guides="1" tooltips="1" connect="1" arrows="1" fold="1" page="1" pageScale="1" pageWidth="1169" pageHeight="827" math="0" shadow="0">
      <root>
        <mxCell id="0" />
        <mxCell id="1" parent="0" />
        <mxCell id="bDw_OEzSAqzrF2mlJKst-2" value="slurm-lab-db-1" style="rounded=1;whiteSpace=wrap;html=1;verticalAlign=bottom;fillColor=#e1d5e7;strokeColor=#9673a6;" parent="1" vertex="1">
          <mxGeometry x="590" y="380" width="100" height="50" as="geometry" />
        </mxCell>
        <mxCell id="bDw_OEzSAqzrF2mlJKst-3" value="mariadb" style="shape=process;whiteSpace=wrap;html=1;backgroundOutline=1;fillColor=#e1d5e7;strokeColor=#9673a6;" parent="1" vertex="1">
          <mxGeometry x="600" y="390" width="80" height="20" as="geometry" />
        </mxCell>
        <mxCell id="bDw_OEzSAqzrF2mlJKst-9" value="slurm-lab-master-1" style="rounded=1;whiteSpace=wrap;html=1;verticalAlign=top;fillColor=#d5e8d4;strokeColor=#82b366;" parent="1" vertex="1">
          <mxGeometry x="360" y="309" width="200" height="50" as="geometry" />
        </mxCell>
        <mxCell id="bDw_OEzSAqzrF2mlJKst-18" style="edgeStyle=orthogonalEdgeStyle;rounded=0;orthogonalLoop=1;jettySize=auto;html=1;exitX=1;exitY=0.5;exitDx=0;exitDy=0;entryX=0;entryY=0.5;entryDx=0;entryDy=0;strokeWidth=2;strokeColor=#999999;" parent="1" source="bDw_OEzSAqzrF2mlJKst-10" target="bDw_OEzSAqzrF2mlJKst-11" edge="1">
          <mxGeometry relative="1" as="geometry" />
        </mxCell>
        <mxCell id="bDw_OEzSAqzrF2mlJKst-10" value="slurmctld" style="shape=process;whiteSpace=wrap;html=1;backgroundOutline=1;fillColor=#d5e8d4;strokeColor=#82b366;" parent="1" vertex="1">
          <mxGeometry x="370" y="329" width="80" height="20" as="geometry" />
        </mxCell>
        <mxCell id="bDw_OEzSAqzrF2mlJKst-57" style="edgeStyle=orthogonalEdgeStyle;rounded=0;orthogonalLoop=1;jettySize=auto;html=1;exitX=0.5;exitY=1;exitDx=0;exitDy=0;entryX=0;entryY=0.5;entryDx=0;entryDy=0;strokeWidth=2;strokeColor=#999999;" parent="1" source="bDw_OEzSAqzrF2mlJKst-11" target="bDw_OEzSAqzrF2mlJKst-3" edge="1">
          <mxGeometry relative="1" as="geometry" />
        </mxCell>
        <mxCell id="bDw_OEzSAqzrF2mlJKst-11" value="slurmdbd" style="shape=process;whiteSpace=wrap;html=1;backgroundOutline=1;fillColor=#e1d5e7;strokeColor=#9673a6;" parent="1" vertex="1">
          <mxGeometry x="470" y="329" width="80" height="20" as="geometry" />
        </mxCell>
        <mxCell id="bDw_OEzSAqzrF2mlJKst-14" value="slurm-lab-master-2" style="rounded=1;whiteSpace=wrap;html=1;verticalAlign=bottom;fillColor=#d5e8d4;strokeColor=#82b366;" parent="1" vertex="1">
          <mxGeometry x="360" y="440" width="200" height="50" as="geometry" />
        </mxCell>
        <mxCell id="bDw_OEzSAqzrF2mlJKst-19" style="edgeStyle=orthogonalEdgeStyle;rounded=0;orthogonalLoop=1;jettySize=auto;html=1;exitX=1;exitY=0.5;exitDx=0;exitDy=0;entryX=0;entryY=0.5;entryDx=0;entryDy=0;strokeWidth=2;strokeColor=#999999;" parent="1" source="bDw_OEzSAqzrF2mlJKst-15" target="bDw_OEzSAqzrF2mlJKst-16" edge="1">
          <mxGeometry relative="1" as="geometry" />
        </mxCell>
        <mxCell id="bDw_OEzSAqzrF2mlJKst-20" style="rounded=0;orthogonalLoop=1;jettySize=auto;html=1;exitX=0.5;exitY=0;exitDx=0;exitDy=0;entryX=0.5;entryY=1;entryDx=0;entryDy=0;strokeWidth=2;strokeColor=#999999;" parent="1" source="bDw_OEzSAqzrF2mlJKst-15" target="bDw_OEzSAqzrF2mlJKst-11" edge="1">
          <mxGeometry relative="1" as="geometry" />
        </mxCell>
        <mxCell id="bDw_OEzSAqzrF2mlJKst-15" value="slurmctld" style="shape=process;whiteSpace=wrap;html=1;backgroundOutline=1;fillColor=#d5e8d4;strokeColor=#82b366;" parent="1" vertex="1">
          <mxGeometry x="370" y="450" width="80" height="20" as="geometry" />
        </mxCell>
        <mxCell id="bDw_OEzSAqzrF2mlJKst-58" style="edgeStyle=orthogonalEdgeStyle;rounded=0;orthogonalLoop=1;jettySize=auto;html=1;exitX=0.5;exitY=0;exitDx=0;exitDy=0;entryX=0;entryY=0.5;entryDx=0;entryDy=0;strokeWidth=2;strokeColor=#999999;" parent="1" source="bDw_OEzSAqzrF2mlJKst-16" target="bDw_OEzSAqzrF2mlJKst-3" edge="1">
          <mxGeometry relative="1" as="geometry" />
        </mxCell>
        <mxCell id="bDw_OEzSAqzrF2mlJKst-16" value="slurmdbd" style="shape=process;whiteSpace=wrap;html=1;backgroundOutline=1;fillColor=#e1d5e7;strokeColor=#9673a6;" parent="1" vertex="1">
          <mxGeometry x="470" y="450" width="80" height="20" as="geometry" />
        </mxCell>
        <mxCell id="bDw_OEzSAqzrF2mlJKst-17" style="rounded=0;orthogonalLoop=1;jettySize=auto;html=1;exitX=0.5;exitY=1;exitDx=0;exitDy=0;entryX=0.5;entryY=0;entryDx=0;entryDy=0;strokeWidth=2;strokeColor=#999999;" parent="1" source="bDw_OEzSAqzrF2mlJKst-10" target="bDw_OEzSAqzrF2mlJKst-16" edge="1">
          <mxGeometry relative="1" as="geometry" />
        </mxCell>
        <mxCell id="bDw_OEzSAqzrF2mlJKst-37" value="slurm-lab-compute-lyoko-1" style="rounded=1;whiteSpace=wrap;html=1;verticalAlign=bottom;fillColor=#dae8fc;strokeColor=#6c8ebf;" parent="1" vertex="1">
          <mxGeometry x="720" y="440" width="160" height="50" as="geometry" />
        </mxCell>
        <mxCell id="bDw_OEzSAqzrF2mlJKst-38" value="slurmd" style="shape=process;whiteSpace=wrap;html=1;backgroundOutline=1;fillColor=#dae8fc;strokeColor=#6c8ebf;" parent="1" vertex="1">
          <mxGeometry x="760" y="450" width="80" height="20" as="geometry" />
        </mxCell>
        <mxCell id="bDw_OEzSAqzrF2mlJKst-42" value="slurm-lab-master-lyoko" style="rounded=1;whiteSpace=wrap;html=1;verticalAlign=top;fillColor=#dae8fc;strokeColor=#6c8ebf;" parent="1" vertex="1">
          <mxGeometry x="720" y="309" width="160" height="50" as="geometry" />
        </mxCell>
        <mxCell id="bDw_OEzSAqzrF2mlJKst-46" style="edgeStyle=orthogonalEdgeStyle;rounded=0;orthogonalLoop=1;jettySize=auto;html=1;exitX=0;exitY=0.5;exitDx=0;exitDy=0;entryX=1;entryY=0.5;entryDx=0;entryDy=0;strokeWidth=2;strokeColor=#999999;" parent="1" source="bDw_OEzSAqzrF2mlJKst-44" target="bDw_OEzSAqzrF2mlJKst-11" edge="1">
          <mxGeometry relative="1" as="geometry" />
        </mxCell>
        <mxCell id="bDw_OEzSAqzrF2mlJKst-47" style="edgeStyle=orthogonalEdgeStyle;rounded=0;orthogonalLoop=1;jettySize=auto;html=1;exitX=0;exitY=0.5;exitDx=0;exitDy=0;entryX=1;entryY=0.5;entryDx=0;entryDy=0;strokeWidth=2;strokeColor=#999999;" parent="1" source="bDw_OEzSAqzrF2mlJKst-44" target="bDw_OEzSAqzrF2mlJKst-16" edge="1">
          <mxGeometry relative="1" as="geometry">
            <Array as="points">
              <mxPoint x="700" y="339" />
              <mxPoint x="700" y="460" />
            </Array>
          </mxGeometry>
        </mxCell>
        <mxCell id="bDw_OEzSAqzrF2mlJKst-44" value="slurmctld" style="shape=process;whiteSpace=wrap;html=1;backgroundOutline=1;fillColor=#dae8fc;strokeColor=#6c8ebf;" parent="1" vertex="1">
          <mxGeometry x="760" y="329" width="80" height="20" as="geometry" />
        </mxCell>
        <mxCell id="bDw_OEzSAqzrF2mlJKst-48" style="edgeStyle=orthogonalEdgeStyle;rounded=0;orthogonalLoop=1;jettySize=auto;html=1;exitX=0.5;exitY=0;exitDx=0;exitDy=0;entryX=0.5;entryY=1;entryDx=0;entryDy=0;strokeWidth=2;strokeColor=#999999;" parent="1" source="bDw_OEzSAqzrF2mlJKst-38" target="bDw_OEzSAqzrF2mlJKst-44" edge="1">
          <mxGeometry relative="1" as="geometry" />
        </mxCell>
        <mxCell id="bDw_OEzSAqzrF2mlJKst-49" value="slurm-lab-compute-2" style="rounded=1;whiteSpace=wrap;html=1;verticalAlign=bottom;fillColor=#d5e8d4;strokeColor=#82b366;" parent="1" vertex="1">
          <mxGeometry x="200" y="440" width="120" height="50" as="geometry" />
        </mxCell>
        <mxCell id="bDw_OEzSAqzrF2mlJKst-54" style="edgeStyle=orthogonalEdgeStyle;rounded=0;orthogonalLoop=1;jettySize=auto;html=1;exitX=1;exitY=0.5;exitDx=0;exitDy=0;entryX=0;entryY=0.5;entryDx=0;entryDy=0;" parent="1" source="bDw_OEzSAqzrF2mlJKst-50" target="bDw_OEzSAqzrF2mlJKst-15" edge="1">
          <mxGeometry relative="1" as="geometry" />
        </mxCell>
        <mxCell id="bDw_OEzSAqzrF2mlJKst-55" style="edgeStyle=orthogonalEdgeStyle;rounded=0;orthogonalLoop=1;jettySize=auto;html=1;exitX=1;exitY=0.5;exitDx=0;exitDy=0;entryX=0;entryY=0.5;entryDx=0;entryDy=0;strokeWidth=2;strokeColor=#999999;" parent="1" source="bDw_OEzSAqzrF2mlJKst-50" target="bDw_OEzSAqzrF2mlJKst-10" edge="1">
          <mxGeometry relative="1" as="geometry" />
        </mxCell>
        <mxCell id="bDw_OEzSAqzrF2mlJKst-50" value="slurmd" style="shape=process;whiteSpace=wrap;html=1;backgroundOutline=1;fillColor=#d5e8d4;strokeColor=#82b366;" parent="1" vertex="1">
          <mxGeometry x="220" y="450" width="80" height="20" as="geometry" />
        </mxCell>
        <mxCell id="bDw_OEzSAqzrF2mlJKst-51" value="slurm-lab-compute-1" style="rounded=1;whiteSpace=wrap;html=1;verticalAlign=top;fillColor=#d5e8d4;strokeColor=#82b366;" parent="1" vertex="1">
          <mxGeometry x="200" y="309" width="120" height="50" as="geometry" />
        </mxCell>
        <mxCell id="bDw_OEzSAqzrF2mlJKst-53" style="edgeStyle=orthogonalEdgeStyle;rounded=0;orthogonalLoop=1;jettySize=auto;html=1;exitX=1;exitY=0.5;exitDx=0;exitDy=0;entryX=0;entryY=0.5;entryDx=0;entryDy=0;strokeWidth=2;strokeColor=#999999;" parent="1" source="bDw_OEzSAqzrF2mlJKst-52" target="bDw_OEzSAqzrF2mlJKst-10" edge="1">
          <mxGeometry relative="1" as="geometry" />
        </mxCell>
        <mxCell id="bDw_OEzSAqzrF2mlJKst-56" style="edgeStyle=orthogonalEdgeStyle;rounded=0;orthogonalLoop=1;jettySize=auto;html=1;exitX=1;exitY=0.5;exitDx=0;exitDy=0;entryX=0;entryY=0.5;entryDx=0;entryDy=0;strokeWidth=2;strokeColor=#999999;" parent="1" source="bDw_OEzSAqzrF2mlJKst-52" target="bDw_OEzSAqzrF2mlJKst-15" edge="1">
          <mxGeometry relative="1" as="geometry" />
        </mxCell>
        <mxCell id="bDw_OEzSAqzrF2mlJKst-52" value="slurmd" style="shape=process;whiteSpace=wrap;html=1;backgroundOutline=1;fillColor=#d5e8d4;strokeColor=#82b366;" parent="1" vertex="1">
          <mxGeometry x="220" y="329" width="80" height="20" as="geometry" />
        </mxCell>
        <mxCell id="bDw_OEzSAqzrF2mlJKst-59" value="Cluster: slurm-lab" style="rounded=0;whiteSpace=wrap;html=1;fillColor=#d5e8d4;strokeColor=#82b366;" parent="1" vertex="1">
          <mxGeometry x="320" y="520" width="120" height="20" as="geometry" />
        </mxCell>
        <mxCell id="bDw_OEzSAqzrF2mlJKst-60" value="Cluster: lyoko" style="rounded=0;whiteSpace=wrap;html=1;fillColor=#dae8fc;strokeColor=#6c8ebf;" parent="1" vertex="1">
          <mxGeometry x="740" y="520" width="120" height="20" as="geometry" />
        </mxCell>
        <mxCell id="bDw_OEzSAqzrF2mlJKst-61" value="Shared services" style="rounded=0;whiteSpace=wrap;html=1;fillColor=#e1d5e7;strokeColor=#9673a6;" parent="1" vertex="1">
          <mxGeometry x="580" y="520" width="120" height="20" as="geometry" />
        </mxCell>
      </root>
    </mxGraphModel>
  </diagram>
</mxfile>
